<svg id="svg" version="1.1" xmlns="http://www.w3.org/2000/svg" xmlns:xlink="http://www.w3.org/1999/xlink" width="400" height="435.13513513513516" viewBox="0, 0, 400,435.13513513513516"><g id="svgg"><path id="path0" d="M133.600 397.017 L 133.600 418.834 136.700 418.717 L 139.800 418.600 139.887 402.246 C 139.935 393.252,140.070 385.797,140.187 385.680 C 140.304 385.563,140.400 385.905,140.400 386.440 C 140.400 386.976,140.850 388.077,141.400 388.886 C 141.950 389.695,142.400 390.624,142.400 390.950 C 142.400 391.276,142.627 391.781,142.905 392.071 C 143.182 392.362,143.633 393.105,143.906 393.723 C 144.180 394.340,144.587 394.732,144.812 394.593 C 145.036 394.454,145.194 394.489,145.163 394.670 C 145.023 395.476,145.239 396.000,145.713 396.000 C 145.995 396.000,146.266 396.488,146.315 397.086 C 146.365 397.683,146.660 398.314,146.971 398.488 C 147.283 398.662,147.659 399.356,147.807 400.031 C 147.999 400.907,148.249 401.190,148.683 401.024 C 149.101 400.863,149.219 400.974,149.062 401.383 C 148.937 401.708,149.016 402.086,149.237 402.223 C 149.458 402.359,149.585 402.860,149.519 403.335 C 149.439 403.918,149.693 404.329,150.300 404.595 C 150.795 404.812,151.200 405.183,151.200 405.419 C 151.200 405.656,151.560 406.236,152.000 406.708 C 152.440 407.180,152.800 407.732,152.800 407.934 C 152.800 408.137,153.079 408.534,153.420 408.817 C 153.765 409.103,153.987 409.790,153.920 410.366 C 153.827 411.163,153.960 411.373,154.500 411.282 C 154.977 411.202,155.200 411.426,155.200 411.982 C 155.200 412.432,155.421 412.755,155.691 412.700 C 155.960 412.645,156.246 413.026,156.324 413.546 C 156.403 414.067,156.807 414.581,157.221 414.690 C 157.784 414.837,157.940 415.179,157.840 416.043 C 157.718 417.088,157.986 417.392,158.900 417.247 C 159.065 417.221,159.200 417.560,159.200 418.000 C 159.200 418.741,159.467 418.800,162.800 418.800 L 166.400 418.800 166.400 397.000 L 166.400 375.200 163.155 375.200 L 159.910 375.200 160.063 391.000 C 160.217 406.962,160.129 408.297,159.144 404.950 C 158.845 403.932,158.375 403.013,158.100 402.907 C 157.825 402.801,157.600 402.401,157.600 402.018 C 157.600 401.636,157.240 400.907,156.800 400.400 C 156.360 399.893,156.000 399.145,156.000 398.739 C 156.000 398.332,155.816 398.000,155.590 398.000 C 155.365 398.000,155.009 397.550,154.800 397.000 C 154.591 396.450,154.235 396.000,154.010 396.000 C 153.784 396.000,153.600 395.634,153.600 395.187 C 153.600 394.741,153.330 394.271,153.000 394.145 C 152.670 394.018,152.400 393.746,152.400 393.540 C 152.400 393.335,152.053 392.794,151.629 392.339 C 151.206 391.884,150.959 391.251,151.081 390.932 C 151.222 390.566,150.989 390.270,150.452 390.129 C 149.904 389.986,149.600 389.588,149.600 389.015 C 149.600 388.525,149.234 387.792,148.786 387.387 C 148.338 386.982,148.066 386.405,148.181 386.104 C 148.297 385.804,148.218 385.665,148.007 385.796 C 147.796 385.926,147.509 385.575,147.368 385.016 C 147.228 384.457,146.943 384.000,146.736 384.000 C 146.528 384.000,146.170 383.460,145.940 382.800 C 145.710 382.140,145.372 381.600,145.189 381.600 C 145.006 381.600,144.794 381.195,144.718 380.700 C 144.643 380.205,144.360 379.845,144.091 379.900 C 143.821 379.955,143.600 379.728,143.600 379.396 C 143.600 379.064,143.240 378.484,142.800 378.107 C 142.360 377.730,142.000 377.284,142.000 377.116 C 142.000 375.766,140.555 375.200,137.111 375.200 L 133.600 375.200 133.600 397.017 M174.267 375.467 C 173.933 375.800,173.910 417.301,174.243 418.167 C 174.457 418.726,175.977 418.800,187.225 418.800 L 199.964 418.800 200.198 417.500 C 200.464 416.032,200.296 414.003,199.851 413.282 C 199.632 412.929,197.102 412.800,190.376 412.800 L 181.200 412.800 181.200 394.000 L 181.200 375.200 177.867 375.200 C 176.033 375.200,174.413 375.320,174.267 375.467 M193.408 375.700 C 193.032 376.829,193.026 380.674,193.400 380.752 C 193.620 380.798,196.815 380.936,200.500 381.059 L 207.200 381.282 207.200 400.057 L 207.200 418.831 210.700 418.716 L 214.200 418.600 214.304 399.900 L 214.408 381.200 219.904 381.139 C 222.927 381.106,225.580 381.036,225.800 380.985 C 226.020 380.934,226.398 380.872,226.639 380.846 C 226.904 380.818,227.111 379.683,227.160 378.000 L 227.242 375.200 210.409 375.200 C 197.297 375.200,193.538 375.311,193.408 375.700 M229.910 380.886 C 229.971 384.029,230.042 387.050,230.068 387.600 C 230.095 388.150,230.096 391.120,230.072 394.200 C 230.048 397.280,230.039 400.160,230.052 400.600 C 230.066 401.040,230.070 403.920,230.062 407.000 C 230.055 410.080,230.092 413.320,230.147 414.200 C 230.201 415.080,230.128 416.453,229.985 417.252 L 229.725 418.704 233.621 418.771 C 236.591 418.822,237.512 418.714,237.496 418.319 C 237.288 413.357,237.683 402.404,238.062 402.638 C 238.349 402.816,238.415 402.748,238.235 402.457 C 238.070 402.189,238.476 401.462,239.194 400.745 L 240.440 399.498 241.420 400.419 C 241.959 400.925,242.400 401.496,242.400 401.687 C 242.400 402.083,243.001 402.873,244.300 404.184 C 244.795 404.683,245.200 405.364,245.200 405.697 C 245.200 406.030,245.470 406.526,245.800 406.800 C 246.130 407.074,246.400 407.552,246.400 407.862 C 246.400 408.171,246.670 408.529,247.000 408.655 C 247.330 408.782,247.600 409.136,247.600 409.443 C 247.600 409.749,247.825 410.003,248.100 410.006 C 248.433 410.010,248.400 410.142,248.000 410.400 C 247.414 410.779,247.477 410.848,248.500 410.950 C 248.775 410.977,249.000 411.215,249.000 411.477 C 249.000 411.740,249.409 412.335,249.909 412.801 C 250.409 413.267,250.725 413.798,250.611 413.982 C 250.498 414.166,250.699 414.429,251.060 414.568 C 251.420 414.706,251.604 414.930,251.468 415.065 C 251.256 415.278,251.734 415.996,253.622 418.300 C 254.309 419.139,261.843 418.985,262.173 418.125 C 262.331 417.716,262.190 417.314,261.816 417.105 C 261.477 416.915,261.200 416.520,261.200 416.227 C 261.200 415.933,260.840 415.599,260.400 415.484 C 259.960 415.369,259.600 414.982,259.600 414.623 C 259.600 413.944,258.613 412.220,257.650 411.216 C 257.341 410.895,256.859 410.083,256.579 409.411 C 256.298 408.740,255.513 407.610,254.835 406.899 C 254.156 406.189,253.600 405.251,253.600 404.816 C 253.600 404.277,253.409 404.099,253.000 404.255 C 252.584 404.415,252.400 404.228,252.400 403.643 C 252.400 403.160,252.143 402.800,251.800 402.800 C 251.470 402.800,251.178 402.530,251.150 402.200 C 251.123 401.870,251.078 401.405,251.050 401.168 C 251.023 400.930,250.685 400.505,250.300 400.224 C 249.915 399.942,249.600 399.529,249.600 399.305 C 249.600 399.081,249.326 398.670,248.990 398.392 C 248.655 398.114,248.469 397.798,248.576 397.690 C 248.684 397.583,248.148 396.766,247.386 395.875 C 246.624 394.985,246.006 394.063,246.013 393.828 C 246.034 393.114,247.974 391.136,248.396 391.398 C 248.614 391.532,248.693 391.387,248.572 391.072 C 248.452 390.759,248.634 390.223,248.977 389.880 C 249.320 389.537,249.600 389.064,249.600 388.829 C 249.600 388.593,249.772 388.400,249.982 388.400 C 250.454 388.400,252.400 386.489,252.400 386.025 C 252.400 385.838,252.672 385.581,253.004 385.454 C 253.336 385.327,253.561 385.059,253.504 384.859 C 253.447 384.659,254.030 383.849,254.800 383.059 C 257.587 380.199,258.400 379.243,258.400 378.826 C 258.400 378.591,258.568 378.400,258.773 378.400 C 258.978 378.400,259.254 378.059,259.386 377.643 C 259.518 377.227,259.981 376.794,260.415 376.680 C 260.938 376.543,261.121 376.260,260.959 375.837 C 260.754 375.304,259.941 375.200,255.970 375.200 C 251.917 375.200,251.259 375.287,251.455 375.800 C 251.601 376.180,251.450 376.400,251.043 376.400 C 250.671 376.400,250.400 376.731,250.400 377.186 C 250.400 377.618,250.042 378.164,249.604 378.398 C 249.166 378.632,248.851 379.044,248.904 379.312 C 248.957 379.580,248.775 379.755,248.500 379.700 C 248.225 379.645,248.000 379.864,248.000 380.186 C 248.000 380.508,247.640 380.965,247.200 381.200 C 246.760 381.435,246.400 381.911,246.400 382.257 C 246.400 382.638,246.175 382.799,245.827 382.666 C 245.435 382.515,245.170 382.826,244.989 383.650 C 244.844 384.312,244.472 384.951,244.162 385.070 C 243.853 385.188,243.600 385.446,243.600 385.643 C 243.600 386.219,242.003 387.649,241.623 387.414 C 241.431 387.296,241.377 387.590,241.502 388.067 C 241.681 388.753,241.591 388.882,241.069 388.682 C 240.706 388.543,240.429 388.557,240.452 388.714 C 240.581 389.582,240.349 390.017,239.900 389.747 C 239.569 389.548,239.588 389.678,239.957 390.132 C 240.439 390.727,240.431 390.787,239.895 390.581 C 239.446 390.409,239.202 390.681,239.006 391.572 C 238.858 392.247,238.484 392.800,238.176 392.800 C 237.716 392.800,237.596 391.242,237.508 384.100 L 237.400 375.400 233.600 375.286 L 229.800 375.173 229.910 380.886 " stroke="none" fill="#349c9c" fill-rule="evenodd"></path><path id="path1" d="M183.920 29.331 C 179.190 29.626,178.016 29.816,177.920 30.303 C 177.821 30.802,177.082 30.894,173.696 30.831 C 170.303 30.767,169.551 30.862,169.353 31.377 C 169.172 31.851,168.503 32.000,166.557 32.000 C 164.267 32.000,164.000 32.083,164.000 32.800 C 164.000 33.528,163.733 33.600,161.043 33.600 C 158.783 33.600,158.031 33.742,157.855 34.200 C 157.693 34.623,157.032 34.800,155.613 34.800 C 154.090 34.800,153.600 34.946,153.600 35.400 C 153.600 35.816,153.181 36.000,152.233 36.000 C 150.471 36.000,149.600 36.345,149.600 37.043 C 149.600 37.426,149.101 37.600,148.000 37.600 C 146.844 37.600,146.400 37.767,146.400 38.200 C 146.400 38.653,145.911 38.800,144.400 38.800 C 143.300 38.800,142.400 38.980,142.400 39.200 C 142.400 39.420,142.027 39.600,141.571 39.600 C 141.116 39.600,140.473 39.870,140.143 40.200 C 139.813 40.530,138.932 40.800,138.186 40.800 C 137.238 40.800,136.699 41.041,136.400 41.600 C 136.165 42.040,135.729 42.400,135.433 42.400 C 135.136 42.400,134.806 42.732,134.700 43.139 C 134.550 43.713,134.229 43.836,133.254 43.693 C 132.291 43.552,132.000 43.659,132.000 44.155 C 132.000 44.572,131.656 44.800,131.027 44.800 C 130.405 44.800,129.962 45.089,129.800 45.600 C 129.660 46.040,129.378 46.400,129.173 46.400 C 128.968 46.400,128.800 46.670,128.800 47.000 C 128.800 47.419,128.378 47.600,127.400 47.600 C 126.422 47.600,126.000 47.781,126.000 48.200 C 126.000 48.530,125.730 48.800,125.400 48.800 C 124.958 48.800,124.800 49.261,124.800 50.553 C 124.800 51.970,124.647 52.347,124.000 52.516 C 123.264 52.708,123.200 53.062,123.200 56.920 C 123.200 60.279,123.081 61.160,122.600 61.345 C 122.077 61.545,122.000 64.234,122.000 82.187 L 122.000 102.800 169.000 102.800 L 216.000 102.800 216.000 105.600 L 216.000 108.400 168.024 108.400 C 136.471 108.400,119.963 108.537,119.800 108.800 C 119.640 109.060,111.010 109.200,95.219 109.200 C 73.958 109.200,70.857 109.276,70.655 109.800 C 70.497 110.212,69.853 110.400,68.600 110.400 C 67.347 110.400,66.703 110.588,66.545 111.000 C 66.395 111.391,65.773 111.600,64.761 111.600 C 63.640 111.600,63.067 111.823,62.707 112.400 C 62.432 112.840,61.795 113.200,61.291 113.200 C 60.787 113.200,60.271 113.470,60.145 113.800 C 60.018 114.130,59.484 114.400,58.957 114.400 C 58.272 114.400,58.000 114.624,58.000 115.187 C 58.000 115.736,57.811 115.902,57.376 115.735 C 56.959 115.576,56.678 115.779,56.529 116.348 C 56.366 116.972,55.994 117.200,55.141 117.200 C 54.473 117.200,53.876 117.457,53.745 117.800 C 53.618 118.130,53.264 118.400,52.957 118.400 C 52.651 118.400,52.400 118.580,52.400 118.800 C 52.400 119.020,52.130 119.200,51.800 119.200 C 51.470 119.200,51.200 119.470,51.200 119.800 C 51.200 120.130,51.022 120.400,50.804 120.400 C 50.586 120.400,50.001 121.028,49.504 121.795 C 49.007 122.562,48.375 123.192,48.100 123.195 C 47.825 123.198,47.600 123.554,47.600 123.987 C 47.600 124.523,47.408 124.701,47.000 124.545 C 46.584 124.385,46.400 124.572,46.400 125.157 C 46.400 125.733,46.147 126.000,45.600 126.000 C 45.160 126.000,44.800 126.251,44.800 126.557 C 44.800 126.864,44.530 127.218,44.200 127.345 C 43.870 127.471,43.600 127.921,43.600 128.345 C 43.600 128.768,43.330 129.218,43.000 129.345 C 42.272 129.624,42.209 130.646,42.900 130.963 C 43.175 131.089,42.991 131.091,42.492 130.967 C 41.741 130.780,41.482 130.984,40.998 132.143 C 40.676 132.914,40.229 133.658,40.006 133.796 C 39.783 133.934,39.600 134.487,39.600 135.024 C 39.600 135.561,39.401 136.000,39.157 136.000 C 38.914 136.000,38.820 136.275,38.949 136.611 C 39.082 136.958,38.841 137.515,38.392 137.900 C 37.956 138.273,37.600 139.057,37.600 139.642 C 37.600 140.370,37.347 140.773,36.800 140.916 C 36.146 141.087,36.000 141.462,36.000 142.963 C 36.000 144.329,35.846 144.800,35.400 144.800 C 34.956 144.800,34.800 145.267,34.800 146.600 C 34.800 147.933,34.644 148.400,34.200 148.400 C 33.749 148.400,33.600 148.884,33.600 150.353 C 33.600 151.970,33.462 152.343,32.800 152.516 C 32.097 152.700,32.000 153.062,32.000 155.514 C 32.000 157.504,31.828 158.445,31.400 158.800 C 30.950 159.173,30.800 160.176,30.800 162.806 C 30.800 165.598,30.674 166.363,30.183 166.551 C 29.354 166.869,29.468 190.824,30.300 191.100 C 30.660 191.220,30.800 192.505,30.800 195.680 C 30.800 199.687,30.865 200.076,31.500 199.909 C 32.126 199.745,32.186 200.018,32.066 202.491 C 31.944 205.016,32.005 205.276,32.766 205.475 C 33.606 205.695,33.794 206.544,33.612 209.300 C 33.562 210.065,33.732 210.400,34.170 210.400 C 34.659 210.400,34.800 210.846,34.800 212.400 C 34.800 213.911,34.947 214.400,35.400 214.400 C 35.833 214.400,36.000 214.844,36.000 216.000 C 36.000 217.333,36.133 217.600,36.800 217.600 C 37.493 217.600,37.600 217.867,37.600 219.600 C 37.600 221.111,37.747 221.600,38.200 221.600 C 38.619 221.600,38.800 222.022,38.800 223.000 C 38.800 223.770,38.980 224.400,39.200 224.400 C 39.420 224.400,39.606 224.715,39.613 225.100 C 39.620 225.485,39.890 226.149,40.213 226.576 C 40.536 227.004,40.800 227.695,40.800 228.114 C 40.800 228.538,41.154 228.967,41.600 229.084 C 42.169 229.233,42.400 229.630,42.400 230.459 C 42.400 231.127,42.657 231.724,43.000 231.855 C 43.330 231.982,43.600 232.357,43.600 232.689 C 43.600 233.089,43.861 233.225,44.370 233.092 C 44.911 232.951,45.077 233.056,44.927 233.446 C 44.586 234.334,45.160 236.000,45.808 236.000 C 46.133 236.000,46.400 236.270,46.400 236.600 C 46.400 236.930,46.625 237.155,46.900 237.100 C 47.181 237.044,47.455 237.481,47.527 238.100 C 47.596 238.705,47.878 239.200,48.152 239.200 C 48.427 239.200,48.952 239.830,49.319 240.600 C 49.687 241.370,50.260 242.000,50.594 242.000 C 50.927 242.000,51.200 242.270,51.200 242.600 C 51.200 242.930,51.470 243.200,51.800 243.200 C 52.133 243.200,52.400 243.556,52.400 244.000 C 52.400 244.444,52.667 244.800,53.000 244.800 C 53.330 244.800,53.600 245.070,53.600 245.400 C 53.600 245.733,53.956 246.000,54.400 246.000 C 54.987 246.000,55.200 246.267,55.200 247.000 C 55.200 247.882,55.370 248.000,56.647 248.000 C 57.896 248.000,58.065 248.109,57.884 248.800 C 57.729 249.393,57.872 249.600,58.437 249.600 C 58.857 249.600,59.200 249.870,59.200 250.200 C 59.200 250.530,59.380 250.800,59.600 250.800 C 59.820 250.800,60.000 251.070,60.000 251.400 C 60.000 251.730,60.270 252.000,60.600 252.000 C 60.930 252.000,61.200 252.204,61.200 252.454 C 61.200 253.245,63.202 254.800,64.221 254.800 C 64.788 254.800,65.200 255.033,65.200 255.353 C 65.200 255.658,65.515 256.007,65.900 256.129 C 66.836 256.425,68.966 257.724,69.133 258.100 C 69.207 258.265,69.702 258.400,70.233 258.400 C 70.826 258.400,71.200 258.632,71.200 259.000 C 71.200 259.419,71.622 259.600,72.600 259.600 C 73.578 259.600,74.000 259.781,74.000 260.200 C 74.000 260.619,74.422 260.800,75.400 260.800 C 76.533 260.800,76.800 260.952,76.800 261.600 C 76.800 262.263,77.067 262.400,78.357 262.400 C 79.406 262.400,79.993 262.606,80.156 263.031 C 80.334 263.492,80.837 263.630,82.034 263.543 C 83.271 263.454,83.768 263.599,84.070 264.139 C 84.375 264.685,84.907 264.834,86.335 264.775 C 89.277 264.653,89.600 264.735,89.600 265.600 C 89.600 266.351,89.867 266.400,93.920 266.400 C 96.373 266.400,98.420 266.580,98.655 266.815 C 98.903 267.063,100.669 267.184,103.035 267.115 L 107.000 267.000 107.000 265.761 C 107.000 264.909,107.187 264.534,107.600 264.561 C 108.096 264.593,108.220 263.772,108.313 259.808 C 108.401 256.101,108.560 254.942,109.013 254.688 C 109.470 254.433,109.600 253.437,109.600 250.180 C 109.600 247.472,109.751 246.000,110.029 246.000 C 110.288 246.000,110.433 245.167,110.395 243.900 C 110.246 238.935,110.357 238.105,111.200 237.884 C 111.904 237.700,112.000 237.338,112.000 234.880 C 112.000 232.765,112.146 232.030,112.600 231.855 C 113.055 231.681,113.200 230.942,113.200 228.800 C 113.200 226.658,113.345 225.919,113.800 225.745 C 114.247 225.573,114.400 224.861,114.400 222.957 C 114.400 220.667,114.483 220.400,115.200 220.400 C 115.879 220.400,116.000 220.133,116.000 218.643 C 116.000 217.450,116.193 216.812,116.600 216.655 C 117.339 216.372,117.409 213.975,116.700 213.247 C 116.299 212.834,116.318 212.749,116.800 212.814 C 118.060 212.984,118.400 212.768,118.400 211.800 C 118.400 211.250,118.760 210.440,119.200 210.000 C 119.640 209.560,120.000 208.851,120.000 208.424 C 120.000 207.997,120.180 207.536,120.400 207.400 C 120.620 207.264,120.800 206.803,120.800 206.376 C 120.800 205.949,121.070 205.600,121.400 205.600 C 121.733 205.600,122.000 205.244,122.000 204.800 C 122.000 204.356,122.267 204.000,122.600 204.000 C 123.000 204.000,123.200 203.600,123.200 202.800 C 123.200 201.867,123.378 201.600,124.000 201.600 C 124.533 201.600,124.800 201.333,124.800 200.800 C 124.800 200.356,125.067 200.000,125.400 200.000 C 125.730 200.000,126.000 199.730,126.000 199.400 C 126.000 199.070,126.188 198.800,126.417 198.800 C 126.864 198.800,127.364 198.427,129.236 196.700 C 129.891 196.095,130.708 195.600,131.051 195.600 C 131.394 195.600,131.769 195.240,131.884 194.800 C 132.000 194.357,132.430 194.000,132.847 194.000 C 133.310 194.000,133.600 193.718,133.600 193.269 C 133.600 192.685,133.840 192.574,134.800 192.715 C 135.710 192.848,136.000 192.735,136.000 192.245 C 136.000 191.890,136.270 191.578,136.600 191.550 C 136.930 191.523,137.380 191.455,137.600 191.400 C 137.820 191.345,138.180 191.278,138.400 191.250 C 138.620 191.222,138.800 190.930,138.800 190.600 C 138.800 190.166,139.246 190.000,140.413 190.000 C 141.477 190.000,142.103 189.796,142.255 189.400 C 142.411 188.994,143.047 188.800,144.219 188.800 C 145.173 188.800,146.064 188.620,146.200 188.400 C 146.336 188.180,147.407 188.000,148.581 188.000 C 150.108 188.000,150.780 187.830,150.945 187.400 C 151.129 186.920,152.001 186.800,155.291 186.800 C 158.974 186.800,159.460 186.716,159.907 186.000 C 160.560 184.954,191.600 184.717,191.600 185.757 C 191.600 186.755,192.603 186.800,214.829 186.800 C 236.360 186.800,236.803 186.784,237.293 186.000 C 237.731 185.299,238.226 185.200,241.296 185.200 C 244.144 185.200,244.800 185.088,244.800 184.600 C 244.800 184.133,245.335 184.000,247.213 184.000 C 248.988 184.000,249.686 183.842,249.855 183.400 C 250.007 183.006,250.632 182.800,251.680 182.800 C 252.938 182.800,253.319 182.631,253.484 182.000 C 253.657 181.338,254.030 181.200,255.647 181.200 C 257.116 181.200,257.600 181.051,257.600 180.600 C 257.600 180.267,257.956 180.000,258.400 180.000 C 258.933 180.000,259.200 179.733,259.200 179.200 C 259.200 178.658,259.467 178.400,260.026 178.400 C 261.190 178.400,262.400 177.679,262.400 176.986 C 262.400 176.664,262.571 176.400,262.779 176.400 C 263.610 176.400,265.200 174.465,265.200 173.454 C 265.200 172.784,265.418 172.400,265.800 172.400 C 266.130 172.400,266.400 172.173,266.400 171.896 C 266.400 171.619,266.760 171.168,267.200 170.893 C 267.652 170.610,268.000 169.960,268.000 169.397 C 268.000 168.777,268.227 168.400,268.600 168.400 C 268.952 168.400,269.205 168.028,269.213 167.500 C 269.220 167.005,269.490 166.251,269.813 165.824 C 270.136 165.396,270.400 164.721,270.400 164.324 C 270.400 163.926,270.580 163.600,270.800 163.600 C 271.020 163.600,271.200 162.700,271.200 161.600 C 271.200 159.867,271.307 159.600,272.000 159.600 C 272.663 159.600,272.800 159.333,272.800 158.043 C 272.800 157.028,273.009 156.405,273.400 156.255 C 273.812 156.097,274.000 155.453,274.000 154.200 C 274.000 152.947,274.188 152.303,274.600 152.145 C 275.026 151.981,275.200 151.316,275.200 149.846 C 275.200 148.273,275.391 147.614,276.000 147.093 C 276.657 146.531,276.800 145.913,276.800 143.647 C 276.800 141.561,276.947 140.829,277.400 140.655 C 277.881 140.471,278.000 139.588,278.000 136.213 C 278.000 132.735,278.105 132.000,278.600 132.000 C 279.074 132.000,279.192 131.473,279.160 129.500 C 279.130 127.642,279.038 127.257,278.800 128.000 C 278.502 128.931,278.477 128.939,278.440 128.124 C 278.418 127.642,278.580 127.136,278.800 127.000 C 279.020 126.864,279.200 125.338,279.200 123.610 C 279.200 121.727,279.372 120.409,279.629 120.324 C 281.019 119.860,281.203 89.177,279.823 88.167 C 279.230 87.734,279.142 86.929,279.174 82.233 C 279.206 77.631,279.119 76.800,278.606 76.800 C 278.108 76.800,278.000 76.132,278.000 73.043 C 278.000 70.072,277.874 69.237,277.400 69.055 C 276.958 68.886,276.800 68.188,276.800 66.413 C 276.800 64.267,276.712 64.000,276.000 64.000 C 275.289 64.000,275.200 63.733,275.200 61.600 C 275.200 59.733,275.067 59.200,274.600 59.200 C 274.181 59.200,274.000 58.778,274.000 57.800 C 274.000 56.822,273.819 56.400,273.400 56.400 C 272.996 56.400,272.800 55.996,272.800 55.163 C 272.800 54.262,272.583 53.868,272.000 53.716 C 271.467 53.576,271.190 53.155,271.171 52.453 C 271.155 51.874,270.793 50.860,270.366 50.200 C 269.940 49.540,269.482 48.685,269.349 48.300 C 269.216 47.915,268.858 47.600,268.553 47.600 C 268.249 47.600,268.000 47.330,268.000 47.000 C 268.000 46.667,267.644 46.400,267.200 46.400 C 266.667 46.400,266.400 46.133,266.400 45.600 C 266.400 45.156,266.133 44.800,265.800 44.800 C 265.470 44.800,265.200 44.530,265.200 44.200 C 265.200 43.870,264.924 43.600,264.587 43.600 C 264.251 43.600,263.871 43.330,263.745 43.000 C 263.613 42.658,263.017 42.400,262.357 42.400 C 261.480 42.400,261.200 42.213,261.200 41.627 C 261.200 41.202,260.840 40.740,260.400 40.600 C 259.960 40.460,259.600 40.178,259.600 39.973 C 259.600 39.768,259.150 39.600,258.600 39.600 C 258.050 39.600,257.600 39.420,257.600 39.200 C 257.600 38.980,257.060 38.800,256.400 38.800 C 255.600 38.800,255.200 38.600,255.200 38.200 C 255.200 37.781,254.778 37.600,253.800 37.600 C 252.667 37.600,252.400 37.448,252.400 36.800 C 252.400 36.184,252.133 36.000,251.243 36.000 C 250.558 36.000,249.987 35.742,249.844 35.370 C 249.694 34.978,249.185 34.767,248.501 34.812 C 246.726 34.929,246.400 34.834,246.400 34.200 C 246.400 33.748,245.914 33.600,244.427 33.600 C 242.805 33.600,242.409 33.458,242.200 32.800 C 241.987 32.129,241.595 32.000,239.760 32.000 C 238.187 32.000,237.510 31.832,237.345 31.400 C 237.167 30.938,236.398 30.800,233.991 30.800 C 231.847 30.800,230.815 30.643,230.701 30.300 C 230.287 29.053,198.819 28.402,183.920 29.331 M160.116 51.600 C 160.287 52.254,160.662 52.400,162.163 52.400 C 163.529 52.400,164.000 52.554,164.000 53.000 C 164.000 53.401,164.401 53.600,165.213 53.600 C 165.898 53.600,166.521 53.850,166.646 54.176 C 166.767 54.492,167.392 54.866,168.033 55.007 C 168.675 55.148,169.200 55.449,169.200 55.676 C 169.200 55.903,170.010 56.887,171.000 57.863 C 171.990 58.839,172.800 59.989,172.800 60.419 C 172.800 60.848,173.070 61.200,173.400 61.200 C 173.800 61.200,174.000 61.600,174.000 62.400 C 174.000 63.200,174.200 63.600,174.600 63.600 C 175.067 63.600,175.200 64.133,175.200 65.997 C 175.200 67.960,175.345 68.484,176.000 68.893 C 176.440 69.168,176.800 69.778,176.800 70.250 C 176.800 70.770,176.486 71.189,176.000 71.316 C 175.350 71.486,175.200 71.862,175.200 73.320 C 175.200 74.546,175.010 75.187,174.600 75.345 C 174.249 75.479,174.000 76.079,174.000 76.787 C 174.000 77.599,173.801 78.000,173.400 78.000 C 173.027 78.000,172.800 78.378,172.800 79.000 C 172.800 79.622,172.573 80.000,172.200 80.000 C 171.870 80.000,171.599 80.135,171.598 80.300 C 171.597 80.465,171.057 81.175,170.398 81.878 C 169.739 82.581,169.200 83.346,169.200 83.578 C 169.200 83.810,168.930 84.000,168.600 84.000 C 168.267 84.000,168.000 84.356,168.000 84.800 C 168.000 85.448,167.733 85.600,166.600 85.600 C 165.622 85.600,165.200 85.781,165.200 86.200 C 165.200 86.653,164.711 86.800,163.200 86.800 C 161.735 86.800,161.200 86.953,161.200 87.371 C 161.200 88.121,160.533 88.226,156.756 88.070 C 154.353 87.970,153.600 87.803,153.600 87.370 C 153.600 86.972,153.118 86.800,152.000 86.800 C 150.844 86.800,150.400 86.633,150.400 86.200 C 150.400 85.870,150.061 85.600,149.647 85.600 C 149.230 85.600,148.800 85.243,148.684 84.800 C 148.543 84.259,148.138 84.000,147.437 84.000 C 146.782 84.000,146.400 83.779,146.400 83.400 C 146.400 83.067,146.044 82.800,145.600 82.800 C 145.067 82.800,144.800 82.533,144.800 82.000 C 144.800 81.556,144.533 81.200,144.200 81.200 C 143.867 81.200,143.600 80.844,143.600 80.400 C 143.600 79.460,142.261 78.000,141.400 78.000 C 140.947 78.000,140.800 77.511,140.800 76.000 C 140.800 74.900,140.620 74.000,140.400 74.000 C 140.159 74.000,140.000 72.341,140.000 69.824 C 140.000 67.471,140.175 65.539,140.400 65.400 C 140.620 65.264,140.800 64.533,140.800 63.776 C 140.800 62.867,140.989 62.400,141.357 62.400 C 141.969 62.400,142.400 61.559,142.400 60.367 C 142.400 59.945,142.604 59.600,142.854 59.600 C 143.104 59.600,143.725 59.150,144.235 58.600 C 144.745 58.050,145.246 57.600,145.349 57.600 C 145.712 57.600,148.800 54.364,148.800 53.985 C 148.800 53.773,149.256 53.600,149.813 53.600 C 150.369 53.600,150.929 53.330,151.055 53.000 C 151.213 52.590,151.854 52.400,153.080 52.400 C 154.538 52.400,154.914 52.250,155.084 51.600 C 155.263 50.917,155.630 50.800,157.600 50.800 C 159.570 50.800,159.937 50.917,160.116 51.600 M290.880 112.080 C 290.572 112.388,290.400 113.959,290.400 116.456 C 290.400 118.623,290.222 120.463,290.000 120.600 C 289.765 120.746,289.600 123.122,289.600 126.377 C 289.600 131.407,289.534 131.924,288.865 132.099 C 288.195 132.274,288.147 132.666,288.315 136.546 C 288.495 140.675,288.475 140.800,287.650 140.800 C 286.843 140.800,286.800 140.992,286.800 144.600 C 286.800 147.711,286.691 148.400,286.200 148.400 C 285.867 148.400,285.600 148.756,285.600 149.200 C 285.600 149.640,285.816 150.000,286.080 150.000 C 286.453 150.000,286.453 150.107,286.080 150.480 C 285.816 150.744,285.600 151.824,285.600 152.880 C 285.600 154.254,285.442 154.800,285.043 154.800 C 284.303 154.800,284.000 155.686,284.000 157.845 C 284.000 159.058,283.809 159.698,283.400 159.855 C 282.993 160.012,282.800 160.650,282.800 161.843 C 282.800 163.138,282.642 163.600,282.200 163.600 C 281.785 163.600,281.600 164.017,281.600 164.957 C 281.600 165.787,281.370 166.403,281.007 166.542 C 280.681 166.667,280.298 167.500,280.155 168.393 C 280.007 169.317,279.489 170.402,278.954 170.909 C 278.417 171.418,278.011 172.272,278.007 172.900 C 278.002 173.608,277.786 174.000,277.400 174.000 C 277.000 174.000,276.800 174.400,276.800 175.200 C 276.800 175.886,276.586 176.406,276.300 176.413 C 275.632 176.431,274.000 177.816,274.000 178.364 C 274.000 178.604,273.730 178.800,273.400 178.800 C 273.070 178.800,272.800 179.070,272.800 179.400 C 272.800 179.730,272.600 180.000,272.356 180.000 C 271.742 180.000,270.015 181.690,270.007 182.300 C 270.003 182.575,269.820 182.800,269.600 182.800 C 269.380 182.800,269.200 183.070,269.200 183.400 C 269.200 183.801,268.799 184.000,267.987 184.000 C 267.279 184.000,266.679 184.249,266.545 184.600 C 266.418 184.930,266.064 185.200,265.757 185.200 C 265.451 185.200,265.200 185.560,265.200 186.000 C 265.200 186.613,264.933 186.800,264.061 186.800 C 261.978 186.800,259.084 188.624,260.121 189.283 C 260.445 189.489,260.374 189.590,259.900 189.594 C 259.515 189.597,259.200 189.420,259.200 189.200 C 259.200 188.552,256.801 188.732,256.545 189.400 C 256.404 189.766,255.798 190.000,254.990 190.000 C 253.269 190.000,252.400 190.350,252.400 191.043 C 252.400 191.349,252.055 191.600,251.633 191.600 C 251.212 191.600,250.776 191.825,250.665 192.100 C 250.504 192.500,250.457 192.500,250.432 192.100 C 250.384 191.343,247.600 191.441,247.600 192.200 C 247.600 192.830,246.571 192.929,241.300 192.804 C 239.271 192.756,238.800 192.863,238.800 193.372 C 238.800 193.932,237.141 194.000,223.600 194.000 C 210.442 194.000,208.400 193.920,208.400 193.408 C 208.400 192.891,205.372 192.814,184.800 192.807 C 164.066 192.799,161.200 192.871,161.200 193.399 C 161.200 193.890,160.532 194.000,157.563 194.000 C 154.262 194.000,153.906 194.074,153.716 194.800 C 153.539 195.476,153.170 195.600,151.341 195.600 C 149.785 195.600,149.110 195.769,148.945 196.200 C 148.789 196.606,148.153 196.800,146.981 196.800 C 146.027 196.800,145.136 196.980,145.000 197.200 C 144.864 197.420,144.223 197.600,143.576 197.600 C 142.797 197.600,142.400 197.803,142.400 198.200 C 142.400 198.561,142.030 198.800,141.470 198.800 C 140.509 198.800,138.800 200.289,138.800 201.126 C 138.800 201.387,138.279 201.600,137.643 201.600 C 136.466 201.600,136.000 202.177,136.000 203.633 C 136.000 204.055,135.730 204.400,135.400 204.400 C 135.070 204.400,134.800 204.670,134.800 205.000 C 134.800 205.330,134.530 205.600,134.200 205.600 C 133.870 205.600,133.600 205.849,133.600 206.153 C 133.600 206.458,133.240 206.801,132.800 206.916 C 132.329 207.039,132.000 207.462,132.000 207.943 C 132.000 208.392,131.775 208.904,131.500 209.080 C 130.642 209.629,129.600 211.867,129.600 213.162 C 129.600 213.843,129.420 214.400,129.200 214.400 C 128.980 214.400,128.800 215.030,128.800 215.800 C 128.800 216.875,128.635 217.200,128.089 217.200 C 127.502 217.200,127.405 217.477,127.531 218.800 C 127.666 220.208,127.583 220.400,126.842 220.400 C 126.098 220.400,126.000 220.633,126.000 222.400 C 126.000 223.911,125.853 224.400,125.400 224.400 C 124.956 224.400,124.800 224.867,124.800 226.200 C 124.800 227.472,124.637 228.000,124.243 228.000 C 123.491 228.000,123.200 228.891,123.200 231.190 C 123.200 232.532,123.018 233.184,122.600 233.345 C 122.141 233.521,122.000 234.274,122.000 236.545 C 122.000 238.868,121.864 239.567,121.375 239.754 C 120.850 239.956,120.770 240.692,120.875 244.347 C 120.965 247.477,120.872 248.651,120.545 248.525 C 119.829 248.248,119.200 252.895,119.200 258.466 C 119.200 261.216,119.094 263.573,118.964 263.703 C 118.664 264.002,118.679 286.812,118.978 287.112 C 119.100 287.234,119.204 289.328,119.208 291.767 C 119.217 296.788,119.763 301.321,120.383 301.528 C 120.631 301.610,120.800 303.114,120.800 305.233 C 120.800 308.137,120.912 308.800,121.400 308.800 C 121.872 308.800,122.000 309.357,122.000 311.413 C 122.000 313.366,122.151 314.083,122.600 314.255 C 123.031 314.421,123.200 315.094,123.200 316.643 C 123.200 318.244,123.347 318.800,123.771 318.800 C 124.085 318.800,124.612 319.343,124.943 320.007 C 125.275 320.670,125.378 321.110,125.173 320.983 C 124.968 320.856,124.800 321.213,124.800 321.776 C 124.800 322.420,125.023 322.800,125.400 322.800 C 125.804 322.800,126.000 323.204,126.000 324.037 C 126.000 324.944,126.217 325.332,126.811 325.487 C 127.401 325.641,127.555 325.912,127.375 326.478 C 127.194 327.048,127.351 327.314,127.964 327.475 C 128.439 327.599,128.800 328.019,128.800 328.447 C 128.800 328.861,128.980 329.200,129.200 329.200 C 129.420 329.200,129.600 329.574,129.600 330.031 C 129.600 331.376,134.354 335.880,136.125 336.212 C 137.207 336.415,137.600 336.690,137.600 337.245 C 137.600 337.660,137.870 338.000,138.200 338.000 C 138.530 338.000,138.800 338.270,138.800 338.600 C 138.800 338.973,139.178 339.200,139.800 339.200 C 140.408 339.200,140.800 339.428,140.800 339.782 C 140.800 340.130,141.362 340.469,142.200 340.626 C 143.002 340.777,143.600 341.126,143.600 341.445 C 143.600 341.813,144.072 342.000,145.000 342.000 C 145.978 342.000,146.400 342.181,146.400 342.600 C 146.400 343.019,146.822 343.200,147.800 343.200 C 148.773 343.200,149.200 343.382,149.200 343.795 C 149.200 344.180,149.763 344.481,150.792 344.645 C 151.668 344.785,152.590 345.147,152.841 345.450 C 153.093 345.752,153.985 346.000,154.825 346.000 C 155.665 346.000,156.464 346.180,156.600 346.400 C 156.736 346.620,157.807 346.800,158.981 346.800 C 160.508 346.800,161.180 346.970,161.345 347.400 C 161.527 347.875,162.368 348.000,165.387 348.000 C 168.510 348.000,169.200 348.109,169.200 348.600 C 169.200 349.101,170.019 349.200,174.173 349.200 C 178.795 349.200,179.164 349.257,179.400 350.000 C 179.799 351.258,209.600 351.258,209.600 350.000 C 209.600 349.154,211.165 349.024,219.300 349.196 C 221.509 349.243,222.000 349.140,222.000 348.627 C 222.000 348.104,222.596 348.000,225.580 348.000 C 228.470 348.000,229.230 347.875,229.524 347.349 C 229.816 346.828,230.496 346.711,232.944 346.758 C 234.796 346.794,236.000 346.656,236.000 346.409 C 236.000 346.180,236.973 346.000,238.213 346.000 C 239.810 346.000,240.489 345.833,240.655 345.400 C 240.813 344.990,241.454 344.800,242.680 344.800 C 244.138 344.800,244.514 344.650,244.684 344.000 C 244.873 343.278,246.844 342.934,249.064 343.236 C 249.209 343.256,249.488 342.986,249.684 342.636 C 249.926 342.203,250.609 342.000,251.820 342.000 C 253.136 342.000,253.600 341.843,253.600 341.400 C 253.600 341.070,253.945 340.800,254.367 340.800 C 255.559 340.800,256.400 340.369,256.400 339.757 C 256.400 339.373,256.901 339.200,258.013 339.200 C 259.077 339.200,259.703 338.996,259.855 338.600 C 259.987 338.258,260.583 338.000,261.243 338.000 C 262.133 338.000,262.400 337.816,262.400 337.200 C 262.400 336.563,262.667 336.400,263.706 336.400 C 264.425 336.400,265.640 336.035,266.406 335.589 C 267.173 335.143,268.115 334.672,268.500 334.542 C 268.885 334.413,269.200 334.058,269.200 333.753 C 269.200 333.430,269.615 333.200,270.200 333.200 C 270.822 333.200,271.200 332.973,271.200 332.600 C 271.200 332.270,271.487 332.000,271.837 332.000 C 272.188 332.000,272.569 331.640,272.684 331.200 C 272.799 330.760,273.142 330.400,273.447 330.400 C 273.812 330.400,274.000 329.925,274.000 329.000 C 274.000 327.994,274.177 327.600,274.629 327.600 C 275.035 327.600,275.232 327.282,275.184 326.700 C 274.891 323.081,275.221 320.488,276.000 320.284 C 277.114 319.993,277.279 276.669,276.167 276.243 C 275.819 276.109,254.669 276.000,229.167 276.000 L 182.800 276.000 182.800 273.600 L 182.800 271.200 231.437 271.200 C 279.738 271.200,280.076 271.194,280.284 270.400 C 280.468 269.695,323.870 268.999,331.100 269.584 C 331.682 269.632,332.000 269.435,332.000 269.029 C 332.000 268.541,332.448 268.400,334.000 268.400 C 335.141 268.400,336.000 268.218,336.000 267.976 C 336.000 267.743,335.820 267.664,335.600 267.800 C 335.380 267.936,335.200 267.867,335.200 267.647 C 335.200 267.016,335.913 266.741,336.106 267.298 C 336.318 267.912,341.615 266.186,342.120 265.337 C 342.296 265.042,342.701 264.800,343.020 264.800 C 343.339 264.800,343.600 264.530,343.600 264.200 C 343.600 263.805,343.995 263.600,344.757 263.600 C 345.417 263.600,346.013 263.342,346.145 263.000 C 346.271 262.670,346.672 262.400,347.034 262.400 C 347.511 262.400,347.643 262.139,347.513 261.455 C 347.367 260.694,347.475 260.547,348.066 260.701 C 348.554 260.829,348.800 260.677,348.800 260.247 C 348.800 259.891,348.995 259.600,349.233 259.600 C 349.804 259.600,353.600 255.813,353.600 255.243 C 353.600 254.999,353.960 254.800,354.400 254.800 C 354.844 254.800,355.200 254.533,355.200 254.200 C 355.200 253.870,355.470 253.600,355.800 253.600 C 356.133 253.600,356.400 253.244,356.400 252.800 C 356.400 252.341,356.667 252.000,357.025 252.000 C 357.381 252.000,357.620 251.698,357.579 251.300 C 357.447 250.003,357.597 249.600,358.213 249.600 C 358.549 249.600,358.941 249.285,359.083 248.900 C 359.225 248.515,359.760 247.529,360.271 246.708 C 360.782 245.887,361.200 244.762,361.200 244.208 C 361.200 243.579,361.425 243.200,361.800 243.200 C 362.195 243.200,362.400 242.805,362.400 242.047 C 362.400 241.230,362.633 240.832,363.200 240.684 C 363.783 240.532,364.000 240.138,364.000 239.237 C 364.000 238.377,364.192 238.000,364.631 238.000 C 365.090 238.000,365.242 237.647,365.190 236.700 C 365.080 234.685,365.156 234.400,365.800 234.400 C 366.253 234.400,366.400 233.911,366.400 232.400 C 366.400 230.667,366.507 230.400,367.200 230.400 C 367.901 230.400,368.000 230.133,368.000 228.249 C 368.000 226.825,368.203 225.930,368.600 225.600 C 369.006 225.263,369.200 224.358,369.200 222.794 C 369.200 221.111,369.363 220.423,369.800 220.255 C 370.281 220.071,370.400 219.188,370.400 215.813 C 370.400 213.271,370.559 211.600,370.800 211.600 C 371.058 211.600,371.200 207.333,371.200 199.600 C 371.200 191.867,371.058 187.600,370.800 187.600 C 370.560 187.600,370.400 186.010,370.400 183.629 C 370.400 180.632,370.253 179.510,369.800 179.057 C 369.382 178.639,369.200 177.614,369.200 175.671 C 369.200 173.564,369.054 172.830,368.600 172.655 C 368.175 172.492,368.000 171.828,368.000 170.375 C 368.000 168.662,367.869 168.291,367.200 168.116 C 366.537 167.942,366.400 167.570,366.400 165.941 C 366.400 164.562,366.221 163.906,365.800 163.745 C 365.458 163.613,365.200 163.017,365.200 162.357 C 365.200 161.595,364.995 161.200,364.600 161.200 C 364.164 161.200,364.000 160.751,364.000 159.563 C 364.000 158.262,363.836 157.882,363.200 157.716 C 362.599 157.559,362.400 157.170,362.400 156.153 C 362.400 155.217,362.215 154.800,361.800 154.800 C 361.400 154.800,361.200 154.400,361.200 153.600 C 361.200 152.940,361.020 152.400,360.800 152.400 C 360.580 152.400,360.394 152.085,360.387 151.700 C 360.380 151.315,360.110 150.651,359.787 150.224 C 359.464 149.796,359.200 149.105,359.200 148.686 C 359.200 148.262,358.846 147.833,358.400 147.716 C 357.960 147.601,357.600 147.173,357.600 146.766 C 357.600 146.272,357.400 146.102,357.000 146.255 C 356.535 146.434,356.400 146.161,356.400 145.043 C 356.400 144.081,356.216 143.600,355.847 143.600 C 355.542 143.600,355.199 143.240,355.084 142.800 C 354.967 142.350,354.538 142.000,354.107 142.000 C 353.481 142.000,353.371 141.778,353.515 140.800 C 353.648 139.890,353.535 139.600,353.045 139.600 C 352.690 139.600,352.400 139.360,352.400 139.068 C 352.400 138.775,351.950 138.294,351.400 138.000 C 350.850 137.706,350.400 137.208,350.400 136.895 C 350.400 136.582,350.040 136.231,349.600 136.116 C 349.160 136.001,348.800 135.658,348.800 135.353 C 348.800 135.049,348.530 134.800,348.200 134.800 C 347.867 134.800,347.600 134.444,347.600 134.000 C 347.600 133.556,347.333 133.200,347.000 133.200 C 346.670 133.200,346.400 132.930,346.400 132.600 C 346.400 132.267,346.044 132.000,345.600 132.000 C 345.156 132.000,344.800 131.733,344.800 131.400 C 344.800 131.070,344.530 130.800,344.200 130.800 C 343.870 130.800,343.600 130.553,343.600 130.252 C 343.600 129.950,342.971 129.275,342.203 128.752 C 341.434 128.228,340.804 127.665,340.803 127.500 C 340.801 127.335,340.350 127.200,339.800 127.200 C 339.178 127.200,338.800 126.973,338.800 126.600 C 338.800 126.270,338.530 126.000,338.200 126.000 C 337.870 126.000,337.600 125.730,337.600 125.400 C 337.600 124.859,337.125 124.622,336.300 124.753 C 336.135 124.779,336.000 124.440,336.000 124.000 C 336.000 123.378,335.733 123.200,334.800 123.200 C 334.000 123.200,333.600 123.000,333.600 122.600 C 333.600 122.181,333.178 122.000,332.200 122.000 C 331.067 122.000,330.800 121.848,330.800 121.200 C 330.800 120.611,330.533 120.400,329.787 120.400 C 329.231 120.400,328.671 120.130,328.545 119.800 C 328.416 119.465,327.822 119.200,327.200 119.200 C 326.578 119.200,325.984 118.935,325.855 118.600 C 325.721 118.249,325.121 118.000,324.413 118.000 C 323.746 118.000,323.200 117.820,323.200 117.600 C 323.200 117.380,322.570 117.200,321.800 117.200 C 320.925 117.200,320.095 116.895,319.585 116.385 C 318.956 115.756,318.466 115.626,317.440 115.819 C 316.303 116.032,316.078 115.942,315.883 115.195 C 315.680 114.421,315.415 114.332,313.527 114.411 C 310.182 114.550,309.600 114.455,309.600 113.769 C 309.600 113.295,309.228 113.156,308.100 113.208 C 302.846 113.451,300.495 113.208,300.284 112.400 C 300.033 111.440,291.801 111.159,290.880 112.080 M30.298 182.100 C 30.223 183.915,30.163 182.430,30.163 178.800 C 30.163 175.170,30.223 173.685,30.298 175.500 C 30.372 177.315,30.372 180.285,30.298 182.100 M196.307 185.886 C 195.706 185.977,194.626 185.979,193.907 185.890 C 193.188 185.801,193.680 185.726,195.000 185.724 C 196.320 185.722,196.908 185.795,196.307 185.886 M204.400 185.979 C 204.400 186.234,203.294 186.400,201.600 186.400 C 200.060 186.400,198.800 186.247,198.800 186.061 C 198.800 185.874,200.060 185.684,201.600 185.640 C 203.345 185.589,204.400 185.716,204.400 185.979 M232.400 186.000 C 232.868 186.302,232.757 186.389,231.900 186.394 C 231.295 186.397,230.800 186.220,230.800 186.000 C 230.800 185.494,231.617 185.494,232.400 186.000 M213.700 186.296 C 212.325 186.374,210.075 186.374,208.700 186.296 C 207.325 186.218,208.450 186.154,211.200 186.154 C 213.950 186.154,215.075 186.218,213.700 186.296 M227.312 186.292 C 226.384 186.376,224.764 186.377,223.712 186.295 C 222.660 186.212,223.420 186.143,225.400 186.142 C 227.380 186.141,228.240 186.208,227.312 186.292 M119.876 258.700 C 119.775 259.085,119.693 258.770,119.693 258.000 C 119.693 257.230,119.775 256.915,119.876 257.300 C 119.976 257.685,119.976 258.315,119.876 258.700 M278.138 270.300 C 278.306 270.571,245.169 270.569,199.800 270.295 C 190.340 270.238,204.054 270.148,230.276 270.096 C 256.498 270.043,278.036 270.135,278.138 270.300 M239.600 287.757 C 239.600 288.450,240.469 288.800,242.190 288.800 C 242.998 288.800,243.604 289.034,243.745 289.400 C 243.879 289.751,244.479 290.000,245.187 290.000 C 245.999 290.000,246.400 290.199,246.400 290.600 C 246.400 290.989,246.790 291.200,247.509 291.200 C 248.366 291.200,248.789 291.518,249.372 292.600 C 249.787 293.370,250.368 294.000,250.663 294.000 C 250.958 294.000,251.200 294.270,251.200 294.600 C 251.200 294.930,251.470 295.200,251.800 295.200 C 252.173 295.200,252.400 295.578,252.400 296.200 C 252.400 296.822,252.627 297.200,253.000 297.200 C 253.333 297.200,253.600 297.556,253.600 298.000 C 253.600 298.533,253.867 298.800,254.400 298.800 C 255.116 298.800,255.200 299.067,255.200 301.353 C 255.200 303.449,255.326 303.939,255.900 304.089 C 256.818 304.329,256.687 308.800,255.763 308.800 C 255.354 308.800,255.200 309.347,255.200 310.800 C 255.200 312.243,255.045 312.800,254.643 312.800 C 254.031 312.800,253.600 313.641,253.600 314.833 C 253.600 315.255,253.373 315.600,253.096 315.600 C 252.818 315.600,252.143 316.166,251.596 316.858 C 251.048 317.549,250.285 318.449,249.900 318.858 C 249.515 319.266,249.200 319.780,249.200 320.000 C 249.200 320.220,248.840 320.400,248.400 320.400 C 247.956 320.400,247.600 320.667,247.600 321.000 C 247.600 321.404,247.196 321.600,246.363 321.600 C 245.462 321.600,245.068 321.817,244.916 322.400 C 244.801 322.840,244.523 323.200,244.297 323.200 C 244.072 323.200,243.643 323.515,243.343 323.900 C 242.824 324.567,242.810 324.567,243.042 323.900 C 243.178 323.508,243.091 323.200,242.843 323.200 C 242.599 323.200,242.400 323.470,242.400 323.800 C 242.400 324.297,241.644 324.400,238.000 324.400 C 234.356 324.400,233.600 324.297,233.600 323.800 C 233.600 323.385,233.183 323.200,232.247 323.200 C 231.230 323.200,230.841 323.001,230.684 322.400 C 230.558 321.917,230.138 321.600,229.625 321.600 C 229.157 321.600,228.668 321.322,228.538 320.983 C 228.408 320.644,228.009 320.395,227.651 320.429 C 226.388 320.551,226.000 320.393,226.000 319.757 C 226.000 319.350,225.780 319.199,225.400 319.345 C 224.986 319.503,224.800 319.319,224.800 318.750 C 224.800 318.262,224.474 317.840,224.000 317.716 C 223.482 317.581,223.200 317.170,223.200 316.553 C 223.200 315.897,222.973 315.600,222.469 315.600 C 221.886 315.600,221.774 315.360,221.914 314.405 C 222.038 313.559,221.901 313.137,221.445 312.962 C 221.090 312.826,220.800 312.320,220.800 311.837 C 220.800 311.355,220.603 310.763,220.361 310.521 C 219.447 309.607,220.486 298.800,221.489 298.800 C 221.913 298.800,222.038 298.511,221.908 297.831 C 221.774 297.128,221.926 296.808,222.461 296.668 C 222.868 296.562,223.200 296.188,223.200 295.837 C 223.200 295.487,223.476 295.200,223.813 295.200 C 224.149 295.200,224.529 294.930,224.655 294.600 C 224.782 294.270,225.136 294.000,225.443 294.000 C 225.749 294.000,226.000 293.749,226.000 293.443 C 226.000 293.136,226.270 292.782,226.600 292.655 C 226.930 292.529,227.200 292.149,227.200 291.813 C 227.200 291.467,227.548 291.200,228.000 291.200 C 228.444 291.200,228.800 290.933,228.800 290.600 C 228.800 290.227,229.178 290.000,229.800 290.000 C 230.422 290.000,230.800 289.773,230.800 289.400 C 230.800 288.932,231.337 288.800,233.237 288.800 C 235.338 288.800,235.704 288.690,235.884 288.000 C 236.143 287.011,239.600 286.785,239.600 287.757 M119.876 293.500 C 119.775 293.885,119.693 293.570,119.693 292.800 C 119.693 292.030,119.775 291.715,119.876 292.100 C 119.976 292.485,119.976 293.115,119.876 293.500 M250.070 376.526 C 249.124 377.532,248.975 378.000,249.600 378.000 C 249.820 378.000,250.000 377.789,250.000 377.531 C 250.000 377.274,250.298 376.734,250.662 376.331 C 251.632 375.260,251.093 375.437,250.070 376.526 M140.181 403.600 C 140.181 411.630,140.234 414.915,140.299 410.900 C 140.365 406.885,140.365 400.315,140.299 396.300 C 140.234 392.285,140.181 395.570,140.181 403.600 M249.600 413.500 C 249.600 414.140,250.731 415.402,251.034 415.099 C 251.199 414.935,251.123 414.800,250.867 414.800 C 250.610 414.800,250.400 414.541,250.400 414.224 C 250.400 413.907,250.220 413.536,250.000 413.400 C 249.780 413.264,249.600 413.309,249.600 413.500 " stroke="none" fill="#144c5c" fill-rule="evenodd"></path><path id="path2" d="M192.305 29.083 C 192.802 29.179,193.522 29.175,193.905 29.075 C 194.287 28.975,193.880 28.896,193.000 28.901 C 192.120 28.905,191.807 28.987,192.305 29.083 M216.500 29.076 C 216.885 29.176,217.515 29.176,217.900 29.076 C 218.285 28.975,217.970 28.893,217.200 28.893 C 216.430 28.893,216.115 28.975,216.500 29.076 M288.093 136.400 C 288.093 137.170,288.175 137.485,288.276 137.100 C 288.376 136.715,288.376 136.085,288.276 135.700 C 288.175 135.315,288.093 135.630,288.093 136.400 M288.093 139.200 C 288.093 139.970,288.175 140.285,288.276 139.900 C 288.376 139.515,288.376 138.885,288.276 138.500 C 288.175 138.115,288.093 138.430,288.093 139.200 M30.163 178.800 C 30.163 182.430,30.223 183.915,30.298 182.100 C 30.372 180.285,30.372 177.315,30.298 175.500 C 30.223 173.685,30.163 175.170,30.163 178.800 M193.907 185.890 C 194.626 185.979,195.706 185.977,196.307 185.886 C 196.908 185.795,196.320 185.722,195.000 185.724 C 193.680 185.726,193.188 185.801,193.907 185.890 M198.800 186.061 C 198.800 186.247,200.060 186.400,201.600 186.400 C 203.294 186.400,204.400 186.234,204.400 185.979 C 204.400 185.716,203.345 185.589,201.600 185.640 C 200.060 185.684,198.800 185.874,198.800 186.061 M230.800 186.000 C 230.800 186.220,231.295 186.397,231.900 186.394 C 232.757 186.389,232.868 186.302,232.400 186.000 C 231.617 185.494,230.800 185.494,230.800 186.000 M208.700 186.296 C 210.075 186.374,212.325 186.374,213.700 186.296 C 215.075 186.218,213.950 186.154,211.200 186.154 C 208.450 186.154,207.325 186.218,208.700 186.296 M223.712 186.295 C 224.764 186.377,226.384 186.376,227.312 186.292 C 228.240 186.208,227.380 186.141,225.400 186.142 C 223.420 186.143,222.660 186.212,223.712 186.295 M119.693 258.000 C 119.693 258.770,119.775 259.085,119.876 258.700 C 119.976 258.315,119.976 257.685,119.876 257.300 C 119.775 256.915,119.693 257.230,119.693 258.000 M199.800 270.295 C 245.169 270.569,278.306 270.571,278.138 270.300 C 278.036 270.135,256.498 270.043,230.276 270.096 C 204.054 270.148,190.340 270.238,199.800 270.295 M119.693 292.800 C 119.693 293.570,119.775 293.885,119.876 293.500 C 119.976 293.115,119.976 292.485,119.876 292.100 C 119.775 291.715,119.693 292.030,119.693 292.800 M192.901 377.000 C 192.905 377.880,192.987 378.193,193.083 377.695 C 193.179 377.198,193.175 376.478,193.075 376.095 C 192.975 375.713,192.896 376.120,192.901 377.000 " stroke="none" fill="#14545c" fill-rule="evenodd"></path><path id="path3" d="M181.385 394.200 C 181.385 404.540,181.436 408.827,181.500 403.728 C 181.563 398.628,181.563 390.168,181.500 384.928 C 181.437 379.687,181.385 383.860,181.385 394.200 M147.201 384.520 C 147.199 385.073,148.450 387.284,148.651 387.082 C 148.757 386.977,148.474 386.285,148.023 385.545 C 147.572 384.805,147.202 384.344,147.201 384.520 M151.187 391.835 C 151.510 392.256,151.807 392.657,151.847 392.727 C 151.887 392.796,152.033 392.670,152.171 392.447 C 152.309 392.223,152.012 391.822,151.511 391.555 C 150.652 391.097,150.634 391.113,151.187 391.835 M246.613 392.785 C 245.861 393.617,246.027 394.821,246.887 394.768 C 247.289 394.744,247.292 394.693,246.900 394.535 C 246.214 394.258,246.273 393.603,247.062 392.731 C 247.426 392.329,247.634 392.000,247.524 392.000 C 247.414 392.000,247.004 392.353,246.613 392.785 M160.124 403.800 C 160.126 405.120,160.201 405.612,160.290 404.893 C 160.379 404.174,160.377 403.094,160.286 402.493 C 160.195 401.892,160.122 402.480,160.124 403.800 " stroke="none" fill="#248ca0" fill-rule="evenodd"></path><path id="path4" d="M118.574 275.600 C 118.574 281.210,118.630 283.505,118.699 280.700 C 118.768 277.895,118.768 273.305,118.699 270.500 C 118.630 267.695,118.574 269.990,118.574 275.600 M229.714 381.400 C 229.717 382.500,229.795 382.903,229.887 382.295 C 229.979 381.686,229.977 380.786,229.882 380.295 C 229.787 379.803,229.711 380.300,229.714 381.400 M229.701 390.600 C 229.705 391.480,229.787 391.793,229.883 391.295 C 229.979 390.798,229.975 390.078,229.875 389.695 C 229.775 389.313,229.696 389.720,229.701 390.600 M229.724 394.600 C 229.726 395.920,229.801 396.412,229.890 395.693 C 229.979 394.974,229.977 393.894,229.886 393.293 C 229.795 392.692,229.722 393.280,229.724 394.600 M229.701 403.400 C 229.705 404.280,229.787 404.593,229.883 404.095 C 229.979 403.598,229.975 402.878,229.875 402.495 C 229.775 402.113,229.696 402.520,229.701 403.400 M229.693 409.200 C 229.693 409.970,229.775 410.285,229.876 409.900 C 229.976 409.515,229.976 408.885,229.876 408.500 C 229.775 408.115,229.693 408.430,229.693 409.200 M229.693 412.000 C 229.693 412.770,229.775 413.085,229.876 412.700 C 229.976 412.315,229.976 411.685,229.876 411.300 C 229.775 410.915,229.693 411.230,229.693 412.000 " stroke="none" fill="#246080" fill-rule="evenodd"></path><path id="path5" d="" stroke="none" fill="#284c5c" fill-rule="evenodd"></path><path id="path6" d="" stroke="none" fill="#184c5c" fill-rule="evenodd"></path><path id="path7" d="" stroke="none" fill="#184c5c" fill-rule="evenodd"></path><path id="path8" d="" stroke="none" fill="#184c5c" fill-rule="evenodd"></path></g></svg>